<svg width="20" height="21" viewBox="0 0 20 21" fill="none" xmlns="http://www.w3.org/2000/svg">
<path d="M1.29594 19.6023L7.65994 13.2383M15.6739 10.4083L13.7689 16.1233C13.7385 16.2149 13.6865 16.2979 13.6172 16.3651C13.5479 16.4323 13.4634 16.4817 13.3709 16.5093L1.69294 19.9803C1.58773 20.0116 1.47597 20.0134 1.36981 19.9855C1.26365 19.9576 1.16717 19.9012 1.09087 19.8223C1.01456 19.7434 0.961353 19.6451 0.937034 19.5381C0.912715 19.4311 0.918217 19.3194 0.95294 19.2153L4.74494 7.84133C4.77212 7.75966 4.81655 7.6848 4.87521 7.62182C4.93388 7.55884 5.0054 7.50922 5.08494 7.47633L10.4719 5.25833C10.5815 5.21309 10.7019 5.2013 10.8181 5.22444C10.9343 5.24757 11.0411 5.3046 11.1249 5.38833L15.5289 9.79333C15.6079 9.8722 15.6633 9.97155 15.689 10.0802C15.7146 10.1888 15.7094 10.3025 15.6739 10.4083V10.4083Z" stroke="black" stroke-width="1.5" stroke-linecap="round" stroke-linejoin="round"/>
<path d="M15.7918 10.0565L18.6198 7.22748C18.9948 6.85242 19.2054 6.34381 19.2054 5.81348C19.2054 5.28315 18.9948 4.77453 18.6198 4.39948L16.4998 2.27748C16.3141 2.09168 16.0936 1.94428 15.8509 1.84372C15.6082 1.74316 15.3481 1.69141 15.0853 1.69141C14.8226 1.69141 14.5625 1.74316 14.3198 1.84372C14.0771 1.94428 13.8566 2.09168 13.6708 2.27748L10.8428 5.10648M9.78084 11.1165C9.64151 10.9772 9.47611 10.8668 9.29409 10.7914C9.11207 10.7161 8.91699 10.6773 8.71999 10.6774C8.52299 10.6774 8.32793 10.7162 8.14594 10.7917C7.96396 10.8671 7.79861 10.9776 7.65934 11.117C7.52007 11.2563 7.40962 11.4217 7.33427 11.6037C7.25892 11.7858 7.22017 11.9808 7.22021 12.1778C7.22026 12.3748 7.25911 12.5699 7.33454 12.7519C7.40997 12.9339 7.52051 13.0992 7.65984 13.2385C7.94124 13.5197 8.32284 13.6777 8.7207 13.6776C9.11855 13.6775 9.50008 13.5194 9.78134 13.238C10.0626 12.9566 10.2206 12.575 10.2205 12.1771C10.2204 11.7793 10.0622 11.3977 9.78084 11.1165Z" stroke="black" stroke-width="1.5" stroke-linecap="round" stroke-linejoin="round"/>
</svg>
