<svg width="21" height="21" viewBox="0 0 21 21" fill="none" xmlns="http://www.w3.org/2000/svg">
<path d="M1.17372 9.27905C0.419323 9.27905 0.104382 8.30981 0.717175 7.86304L10.0409 1.08081C10.1741 0.983256 10.3348 0.930664 10.4999 0.930664C10.665 0.930664 10.8257 0.983256 10.9589 1.08081L20.2826 7.86304C20.8954 8.30737 20.5805 9.27905 19.8236 9.27905H18.3124V18.4099H20.0702C20.1776 18.4099 20.2655 18.4978 20.2655 18.6052V19.8748C20.2655 19.9822 20.1776 20.0701 20.0702 20.0701H0.929577C0.822155 20.0701 0.734264 19.9822 0.734264 19.8748V18.6052C0.734264 18.4978 0.822155 18.4099 0.929577 18.4099H2.68739V9.27905H1.17372ZM10.4999 2.802L3.88124 7.61646H17.1185L10.4999 2.802ZM16.5546 9.27905H13.6981V18.4099H16.5546V9.27905ZM11.9403 9.27905H9.08387V18.4099H11.9403V9.27905ZM4.4452 18.4099H7.32606V9.27905H4.4452V18.4099Z" fill="black"/>
</svg>
