<svg width="22" height="16" viewBox="0 0 22 16" fill="none" xmlns="http://www.w3.org/2000/svg">
<path d="M6.29103 13.2245C6.02179 13.2249 5.76182 13.1263 5.56063 12.9473L-0.00537109 7.99955L5.86973 2.77675C6.08872 2.58941 6.37248 2.49549 6.65999 2.51519C6.9475 2.53489 7.2158 2.66664 7.40719 2.88209C7.59857 3.09755 7.69777 3.37951 7.68343 3.66734C7.6691 3.95517 7.54238 4.22588 7.33053 4.42125L3.30563 7.99955L7.02143 11.3017C7.18837 11.4499 7.3063 11.6453 7.35957 11.862C7.41284 12.0787 7.39892 12.3065 7.31967 12.5152C7.24042 12.7238 7.09958 12.9034 6.91585 13.0301C6.73213 13.1568 6.51421 13.2246 6.29103 13.2245ZM16.1305 13.2223L22.0056 7.99955L16.4396 3.05175C16.2216 2.85803 15.9355 2.75888 15.6443 2.77611C15.3531 2.79333 15.0807 2.92552 14.887 3.1436C14.6933 3.36167 14.5941 3.64777 14.6113 3.93895C14.6286 4.23012 14.7608 4.50253 14.9788 4.69625L18.6946 7.99955L14.6697 11.5767C14.4515 11.7705 14.3192 12.0429 14.3019 12.3342C14.2845 12.6255 14.3836 12.9117 14.5773 13.1299C14.771 13.3482 15.0435 13.4805 15.3348 13.4978C15.6261 13.5152 15.9123 13.4161 16.1305 13.2223ZM10.9847 14.781L13.1847 1.58105C13.2129 1.43679 13.2118 1.28835 13.1816 1.14451C13.1514 1.00066 13.0927 0.86433 13.0089 0.743561C12.9251 0.622791 12.818 0.520035 12.6939 0.441361C12.5697 0.362687 12.4311 0.309691 12.2861 0.285504C12.1411 0.261317 11.9928 0.266429 11.8498 0.300539C11.7068 0.334648 11.5721 0.397063 11.4537 0.484096C11.3353 0.57113 11.2355 0.681016 11.1602 0.807266C11.0849 0.933515 11.0358 1.07357 11.0155 1.21915L8.81553 14.4191C8.7874 14.5634 8.78846 14.7118 8.81866 14.8557C8.84886 14.9995 8.90758 15.1359 8.99135 15.2566C9.07512 15.3774 9.18224 15.4802 9.30639 15.5588C9.43054 15.6375 9.5692 15.6905 9.71418 15.7147C9.85915 15.7389 10.0075 15.7338 10.1505 15.6997C10.2934 15.6655 10.4281 15.6031 10.5466 15.5161C10.665 15.4291 10.7648 15.3192 10.8401 15.1929C10.9153 15.0667 10.9645 14.9266 10.9847 14.781Z" fill="black"/>
</svg>
