<svg width="52" height="52" viewBox="0 0 52 52" fill="none" xmlns="http://www.w3.org/2000/svg">
<rect width="52" height="52" rx="26" fill="#00BF58"/>
<path d="M26.1668 18.5551L32.0488 23.3081C32.1907 23.4217 32.2149 23.6303 32.1042 23.7756L25.1309 32.862C24.6925 33.4233 24.0465 33.7408 23.3544 33.7526L19.5476 33.7995C19.3446 33.8018 19.167 33.6612 19.1208 33.4596L18.2556 29.698C18.1057 29.0067 18.2556 28.2918 18.694 27.7411L25.7019 18.6114C25.8149 18.4649 26.0237 18.4391 26.1668 18.5551Z" fill="white"/>
<path opacity="0.4" d="M34.684 20.4767L33.55 21.8922C33.4358 22.0364 33.2305 22.0598 33.0886 21.945C31.7101 20.8294 28.1802 17.9666 27.2008 17.1733C27.0577 17.0561 27.0381 16.8475 27.1535 16.7022L28.2471 15.3441C29.2391 14.0668 30.9695 13.9496 32.3653 15.0628L33.9687 16.3401C34.6263 16.8557 35.0646 17.5354 35.2146 18.2502C35.3876 19.0365 35.2031 19.8087 34.684 20.4767Z" fill="white"/>
</svg>
