<svg width="14" height="18" viewBox="0 0 14 18" fill="none" xmlns="http://www.w3.org/2000/svg">
<path fill-rule="evenodd" clip-rule="evenodd" d="M9.3887 0.173828C12.0952 0.173828 13.648 1.5522 13.648 3.95347V15.8868C13.648 16.3876 13.3974 16.8383 12.9761 17.0903C12.5564 17.3431 12.0506 17.3481 11.6261 17.1018L6.87046 14.3377L2.07098 17.1075C1.86352 17.2274 1.63612 17.2881 1.40791 17.2881C1.17252 17.2881 0.937138 17.2233 0.723296 17.0936C0.302793 16.8415 0.0522461 16.3908 0.0522461 15.8909V3.80324C0.0522461 1.49638 1.60579 0.173828 4.31473 0.173828H9.3887ZM9.3887 1.40525H4.31473C2.28083 1.40525 1.24912 2.21142 1.24912 3.80324V15.8909C1.24912 15.9681 1.29221 16.0099 1.32812 16.0313C1.36402 16.0543 1.42068 16.0707 1.48611 16.0329L6.57842 13.0939C6.76035 12.9897 6.98297 12.9888 7.16569 13.0947L12.2141 16.0288C12.2804 16.0682 12.337 16.0502 12.3729 16.028C12.4088 16.0058 12.4511 15.964 12.4511 15.8868L12.4508 3.85992C12.4448 3.15336 12.3119 1.40525 9.3887 1.40525ZM9.73882 5.69758C10.0692 5.69758 10.3373 5.97342 10.3373 6.31329C10.3373 6.65316 10.0692 6.929 9.73882 6.929H3.89965C3.56931 6.929 3.30121 6.65316 3.30121 6.31329C3.30121 5.97342 3.56931 5.69758 3.89965 5.69758H9.73882Z" fill="#CBCBCB"/>
</svg>
