<svg width="52" height="52" viewBox="0 0 52 52" fill="none" xmlns="http://www.w3.org/2000/svg">
<rect width="52" height="52" rx="26" fill="#00BF58"/>
<path opacity="0.4" d="M30.619 14.9502H21.9028C18.7412 14.9502 16.9004 16.8014 16.9004 19.9734V30.7166C16.9004 33.9406 18.7412 35.7502 21.9028 35.7502H30.619C33.8316 35.7502 35.6204 33.9406 35.6204 30.7166V19.9734C35.6204 16.8014 33.8316 14.9502 30.619 14.9502Z" fill="white"/>
<path d="M22.1831 29.2407H30.3367C30.7517 29.2823 31.0647 29.6359 31.0647 30.0623C31.0647 30.4773 30.7517 30.8319 30.3367 30.8735H22.1831C21.8711 30.9151 21.5695 30.7591 21.4031 30.4991C21.2367 30.2287 21.2367 29.8855 21.4031 29.6255C21.5695 29.3551 21.8711 29.2095 22.1831 29.2407ZM30.3367 24.4973C30.7839 24.4973 31.1479 24.8623 31.1479 25.3095C31.1479 25.7567 30.7839 26.1207 30.3367 26.1207H22.1831C21.7349 26.1207 21.3719 25.7567 21.3719 25.3095C21.3719 24.8623 21.7349 24.4973 22.1831 24.4973H30.3367ZM25.2917 19.7871C25.7399 19.7871 26.1039 20.1511 26.1039 20.5973C26.1039 21.0559 25.7399 21.4199 25.2917 21.4199H22.1831C21.7349 21.4199 21.3719 21.0559 21.3719 20.6087C21.3719 20.1615 21.7349 19.7975 22.1831 19.7975V19.7871H25.2917Z" fill="white"/>
</svg>
